<svg xmlns="http://www.w3.org/2000/svg" viewBox="0 0 32.12 32.27"><title>btn-w-n_1</title><g id="Capa_2" data-name="Capa 2"><g id="Capa_1-2" data-name="Capa 1"><path d="M0,32.27,2.27,24a16,16,0,1,1,6.21,6.07Zm8.87-5.12a13.28,13.28,0,1,0-3.69-3.59L3.84,28.47ZM24.18,19.8c-.1-.16-.37-.26-.77-.46s-2.36-1.17-2.73-1.3-.63-.2-.9.2-1,1.3-1.26,1.56-.47.3-.87.1a11,11,0,0,1-3.21-2,11.87,11.87,0,0,1-2.22-2.77c-.24-.4,0-.61.17-.81s.4-.47.6-.7a2.53,2.53,0,0,0,.4-.67.72.72,0,0,0,0-.7c-.1-.2-.9-2.17-1.23-3s-.66-.67-.9-.68h-.77a1.42,1.42,0,0,0-1.06.5A4.45,4.45,0,0,0,8,12.44a7.72,7.72,0,0,0,1.63,4.13c.2.27,2.82,4.3,6.83,6a22.48,22.48,0,0,0,2.27.85,5.59,5.59,0,0,0,2.52.16,4.16,4.16,0,0,0,2.7-1.9A3.39,3.39,0,0,0,24.18,19.8Z"/></g></g></svg>