<svg xmlns="http://www.w3.org/2000/svg" viewBox="0 0 32.27 32.27"><title>btn-i-n_1</title><g id="Capa_2" data-name="Capa 2"><g id="Capa_1-2" data-name="Capa 1"><path d="M16.13,2.91c4.31,0,4.82,0,6.53.09,4.37.2,6.41,2.28,6.61,6.62.08,1.7.09,2.21.09,6.52s0,4.82-.09,6.52c-.2,4.33-2.24,6.41-6.61,6.61-1.71.08-2.21.09-6.53.09s-4.81,0-6.52-.09C5.23,29.07,3.2,27,3,22.65c-.08-1.7-.09-2.21-.09-6.52s0-4.81.09-6.52C3.2,5.28,5.24,3.2,9.61,3,11.32,2.92,11.83,2.91,16.13,2.91Zm0-2.91C11.75,0,11.2,0,9.48.1,3.62.37.37,3.62.1,9.48,0,11.2,0,11.75,0,16.13s0,4.94.1,6.66c.27,5.86,3.52,9.11,9.38,9.38,1.72.08,2.27.1,6.65.1s4.94,0,6.66-.1c5.85-.27,9.12-3.52,9.38-9.38.08-1.72.1-2.27.1-6.66s0-4.93-.1-6.65C31.91,3.63,28.65.37,22.79.1,21.07,0,20.52,0,16.13,0Zm0,7.85a8.29,8.29,0,1,0,8.29,8.28A8.28,8.28,0,0,0,16.13,7.85Zm0,13.66a5.38,5.38,0,1,1,5.38-5.38A5.37,5.37,0,0,1,16.13,21.51ZM24.75,5.59a1.94,1.94,0,1,0,1.93,1.93A1.93,1.93,0,0,0,24.75,5.59Z"/></g></g></svg>