<svg xmlns="http://www.w3.org/2000/svg" viewBox="0 0 179.42 28.36"><defs><style>.cls-1{fill:#07666d;}</style></defs><title>btn-curriculum-n_1</title><g id="Capa_2" data-name="Capa 2"><g id="Capa_1-2" data-name="Capa 1"><path class="cls-1" d="M0,25.41v-10H3.45a8.88,8.88,0,0,1,1.79.14,3.5,3.5,0,0,1,1.47.72A4.17,4.17,0,0,1,7.89,18a6.8,6.8,0,0,1,.4,2.39,6.91,6.91,0,0,1-.27,2,5,5,0,0,1-.69,1.46,3.57,3.57,0,0,1-.91.91,3.68,3.68,0,0,1-1.19.5,7.1,7.1,0,0,1-1.61.17Zm1.33-1.18H3.47A4.94,4.94,0,0,0,5,24a2.08,2.08,0,0,0,.9-.52,3.09,3.09,0,0,0,.73-1.26,6.07,6.07,0,0,0,.27-1.93,4.6,4.6,0,0,0-.52-2.42,2.58,2.58,0,0,0-1.25-1.13,5.11,5.11,0,0,0-1.72-.21H1.33Z"/><path class="cls-1" d="M14.92,23.07l1.27.16A3.12,3.12,0,0,1,15.08,25a3.36,3.36,0,0,1-2.08.62,3.29,3.29,0,0,1-2.52-1,3.79,3.79,0,0,1-.94-2.75,4,4,0,0,1,1-2.84,3.16,3.16,0,0,1,2.44-1,3.1,3.1,0,0,1,2.38,1,3.92,3.92,0,0,1,.93,2.79c0,.07,0,.18,0,.33H10.81a2.87,2.87,0,0,0,.68,1.83,2,2,0,0,0,1.52.63,1.85,1.85,0,0,0,1.15-.35A2.34,2.34,0,0,0,14.92,23.07Zm-4-2h4.06a2.46,2.46,0,0,0-.47-1.37A1.89,1.89,0,0,0,13,19a2,2,0,0,0-1.43.57A2.24,2.24,0,0,0,10.88,21.08Z"/><path class="cls-1" d="M17.25,23.24l1.21-.19A1.68,1.68,0,0,0,19,24.17a2,2,0,0,0,1.3.39,1.92,1.92,0,0,0,1.26-.34,1,1,0,0,0,.41-.81.75.75,0,0,0-.36-.66,5.38,5.38,0,0,0-1.26-.42,10.17,10.17,0,0,1-1.87-.59,1.75,1.75,0,0,1-.8-.69,1.82,1.82,0,0,1-.27-1,2,2,0,0,1,.22-.9,2,2,0,0,1,.61-.69,2.58,2.58,0,0,1,.78-.36A4.07,4.07,0,0,1,20.13,18a4.33,4.33,0,0,1,1.5.24,2.11,2.11,0,0,1,.95.67A2.55,2.55,0,0,1,23,20l-1.2.17a1.27,1.27,0,0,0-.48-.88A1.73,1.73,0,0,0,20.21,19a2,2,0,0,0-1.21.28.82.82,0,0,0-.36.66.7.7,0,0,0,.15.43,1.06,1.06,0,0,0,.47.32c.13,0,.49.15,1.09.32a14.15,14.15,0,0,1,1.82.57,1.76,1.76,0,0,1,1.11,1.7,2.06,2.06,0,0,1-.36,1.16,2.37,2.37,0,0,1-1,.84,3.73,3.73,0,0,1-1.53.3A3.45,3.45,0,0,1,18.19,25,2.73,2.73,0,0,1,17.25,23.24Z"/><path class="cls-1" d="M29.48,22.75l1.21.16a3.16,3.16,0,0,1-1,2,3,3,0,0,1-2,.71,3.11,3.11,0,0,1-2.4-1,4,4,0,0,1-.91-2.79,5,5,0,0,1,.39-2.06,2.7,2.7,0,0,1,1.19-1.32A3.45,3.45,0,0,1,27.67,18a3.07,3.07,0,0,1,1.94.59,2.76,2.76,0,0,1,1,1.7l-1.2.19a1.93,1.93,0,0,0-.6-1.1A1.55,1.55,0,0,0,27.72,19a1.9,1.9,0,0,0-1.51.67,3.12,3.12,0,0,0-.58,2.1,3.23,3.23,0,0,0,.56,2.13,1.82,1.82,0,0,0,1.46.66,1.7,1.7,0,0,0,1.21-.44A2.25,2.25,0,0,0,29.48,22.75Z"/><path class="cls-1" d="M36.48,24.52a4.86,4.86,0,0,1-1.32.82,3.78,3.78,0,0,1-1.36.24A2.66,2.66,0,0,1,32,25a2,2,0,0,1-.64-1.49,2,2,0,0,1,.24-1,2.06,2.06,0,0,1,.64-.7,2.9,2.9,0,0,1,.89-.41,9.72,9.72,0,0,1,1.09-.18,10.84,10.84,0,0,0,2.19-.43c0-.17,0-.27,0-.32A1.38,1.38,0,0,0,36,19.42a2,2,0,0,0-1.4-.41,2.2,2.2,0,0,0-1.28.3,1.81,1.81,0,0,0-.61,1.08l-1.21-.17A3,3,0,0,1,32.07,19a2.51,2.51,0,0,1,1.09-.74A4.85,4.85,0,0,1,34.81,18a4.27,4.27,0,0,1,1.51.22,1.9,1.9,0,0,1,.85.55,1.94,1.94,0,0,1,.39.83,7.16,7.16,0,0,1,.06,1.14v1.64a15.86,15.86,0,0,0,.08,2.17,2.6,2.6,0,0,0,.31.87H36.72A2.38,2.38,0,0,1,36.48,24.52Zm-.11-2.75a9.16,9.16,0,0,1-2,.46,5.14,5.14,0,0,0-1.07.25,1.09,1.09,0,0,0-.66,1,1,1,0,0,0,.38.82,1.6,1.6,0,0,0,1.09.33,2.5,2.5,0,0,0,1.26-.31,2,2,0,0,0,.82-.85,3,3,0,0,0,.19-1.23Z"/><path class="cls-1" d="M39.51,25.41V18.15h1.11v1.1a3.09,3.09,0,0,1,.78-1,1.39,1.39,0,0,1,.79-.24,2.44,2.44,0,0,1,1.27.39L43,19.53a1.74,1.74,0,0,0-.9-.27,1.16,1.16,0,0,0-.72.24,1.29,1.29,0,0,0-.46.67,4.73,4.73,0,0,0-.21,1.44v3.8Z"/><path class="cls-1" d="M44,26l1.2.18a1.14,1.14,0,0,0,.42.81,2.09,2.09,0,0,0,1.25.34A2.26,2.26,0,0,0,48.15,27a1.64,1.64,0,0,0,.62-1,7,7,0,0,0,.09-1.58,2.52,2.52,0,0,1-2,.95,2.73,2.73,0,0,1-2.31-1.08,4.13,4.13,0,0,1-.82-2.59,4.87,4.87,0,0,1,.37-1.92,3.06,3.06,0,0,1,1.09-1.35A3,3,0,0,1,46.86,18,2.59,2.59,0,0,1,49,19v-.88h1.13v6.28a6,6,0,0,1-.34,2.4A2.58,2.58,0,0,1,48.67,28a3.79,3.79,0,0,1-1.84.41,3.5,3.5,0,0,1-2.1-.59A2,2,0,0,1,44,26Zm1-4.36a3.16,3.16,0,0,0,.57,2.09,1.88,1.88,0,0,0,2.84,0,3.08,3.08,0,0,0,.58-2,2.94,2.94,0,0,0-.6-2,1.83,1.83,0,0,0-2.82,0A3,3,0,0,0,45,21.65Z"/><path class="cls-1" d="M56.71,24.52a4.72,4.72,0,0,1-1.32.82,3.76,3.76,0,0,1-1.35.24A2.64,2.64,0,0,1,52.2,25a1.92,1.92,0,0,1-.64-1.49,2,2,0,0,1,.24-1,1.88,1.88,0,0,1,.64-.7,2.85,2.85,0,0,1,.88-.41,10.14,10.14,0,0,1,1.09-.18,10.82,10.82,0,0,0,2.2-.43c0-.17,0-.27,0-.32a1.38,1.38,0,0,0-.35-1.06,2.05,2.05,0,0,0-1.4-.41,2.23,2.23,0,0,0-1.29.3A1.86,1.86,0,0,0,53,20.39l-1.2-.17A3,3,0,0,1,52.31,19a2.4,2.4,0,0,1,1.09-.74A4.83,4.83,0,0,1,55,18a4.23,4.23,0,0,1,1.51.22,1.71,1.71,0,0,1,1.24,1.38,7.16,7.16,0,0,1,.06,1.14v1.64a17.82,17.82,0,0,0,.08,2.17,2.84,2.84,0,0,0,.31.87H57A2.58,2.58,0,0,1,56.71,24.52Zm-.1-2.75a9.45,9.45,0,0,1-2,.46,5,5,0,0,0-1.07.25,1,1,0,0,0-.49.4,1.06,1.06,0,0,0-.17.58,1,1,0,0,0,.37.82,1.6,1.6,0,0,0,1.09.33,2.52,2.52,0,0,0,1.27-.31,1.9,1.9,0,0,0,.81-.85,3,3,0,0,0,.2-1.23Z"/><path class="cls-1" d="M59.75,25.41V18.15h1.1v1.1a3.22,3.22,0,0,1,.79-1,1.39,1.39,0,0,1,.79-.24,2.43,2.43,0,0,1,1.26.39l-.42,1.15a1.74,1.74,0,0,0-.91-.27,1.18,1.18,0,0,0-.72.24,1.35,1.35,0,0,0-.46.67,4.73,4.73,0,0,0-.2,1.44v3.8Z"/><path class="cls-1" d="M68.51,25.41v-10h1.33V19.5H75V15.39h1.33v10H75V20.69h-5.2v4.72Z"/><path class="cls-1" d="M78,21.78a3.78,3.78,0,0,1,1.12-3,3.44,3.44,0,0,1,2.29-.8,3.25,3.25,0,0,1,2.45,1,3.74,3.74,0,0,1,1,2.71,4.65,4.65,0,0,1-.43,2.2,2.89,2.89,0,0,1-1.22,1.25,3.51,3.51,0,0,1-1.75.45,3.28,3.28,0,0,1-2.47-1A3.93,3.93,0,0,1,78,21.78Zm1.27,0a3.07,3.07,0,0,0,.61,2.09,2,2,0,0,0,3,0,3.17,3.17,0,0,0,.61-2.13,3,3,0,0,0-.61-2A2,2,0,0,0,81.37,19a1.94,1.94,0,0,0-1.53.69A3,3,0,0,0,79.23,21.78Z"/><path class="cls-1" d="M84.64,28.23l.24-1.05a2.13,2.13,0,0,0,.58.1A.68.68,0,0,0,86,27a2.61,2.61,0,0,0,.18-1.25V18.15h1.23v7.66a3.49,3.49,0,0,1-.35,1.86,1.61,1.61,0,0,1-1.47.69A3.85,3.85,0,0,1,84.64,28.23ZM86.2,16.82V15.39h1.23v1.43Z"/><path class="cls-1" d="M94.06,24.52a4.86,4.86,0,0,1-1.32.82,3.78,3.78,0,0,1-1.36.24A2.64,2.64,0,0,1,89.54,25a2,2,0,0,1-.64-1.49,2,2,0,0,1,.24-1,2.06,2.06,0,0,1,.64-.7,2.9,2.9,0,0,1,.89-.41,9.72,9.72,0,0,1,1.09-.18A10.84,10.84,0,0,0,94,20.8c0-.17,0-.27,0-.32a1.38,1.38,0,0,0-.35-1.06,2,2,0,0,0-1.4-.41,2.18,2.18,0,0,0-1.28.3,1.81,1.81,0,0,0-.61,1.08l-1.21-.17A3,3,0,0,1,89.65,19a2.45,2.45,0,0,1,1.09-.74A4.85,4.85,0,0,1,92.39,18a4.27,4.27,0,0,1,1.51.22,1.9,1.9,0,0,1,.85.55,1.94,1.94,0,0,1,.39.83,7.16,7.16,0,0,1,.06,1.14v1.64a15.86,15.86,0,0,0,.08,2.17,2.6,2.6,0,0,0,.31.87H94.3A2.38,2.38,0,0,1,94.06,24.52ZM94,21.77a9.16,9.16,0,0,1-2,.46,5.14,5.14,0,0,0-1.07.25,1.08,1.08,0,0,0-.49.4,1.06,1.06,0,0,0-.17.58,1,1,0,0,0,.38.82,1.58,1.58,0,0,0,1.09.33,2.5,2.5,0,0,0,1.26-.31,1.9,1.9,0,0,0,.81-.85,2.86,2.86,0,0,0,.2-1.23Z"/><path class="cls-1" d="M105.7,25.41V24.5a2.27,2.27,0,0,1-2,1.08,2.81,2.81,0,0,1-1.59-.48A3.17,3.17,0,0,1,101,23.76a4.56,4.56,0,0,1-.4-2,5.16,5.16,0,0,1,.36-2A2.84,2.84,0,0,1,103.62,18a2.36,2.36,0,0,1,2,1v-3.6h1.23v10Zm-3.89-3.62a3.15,3.15,0,0,0,.59,2.08,1.78,1.78,0,0,0,1.39.69,1.74,1.74,0,0,0,1.37-.66,3,3,0,0,0,.56-2,3.46,3.46,0,0,0-.57-2.19,1.76,1.76,0,0,0-1.41-.69,1.71,1.71,0,0,0-1.38.67A3.33,3.33,0,0,0,101.81,21.79Z"/><path class="cls-1" d="M113.75,23.07l1.27.16A3.12,3.12,0,0,1,113.91,25a3.76,3.76,0,0,1-4.61-.37,3.83,3.83,0,0,1-.93-2.75,4,4,0,0,1,.94-2.84,3.18,3.18,0,0,1,2.45-1,3.12,3.12,0,0,1,2.38,1,4,4,0,0,1,.92,2.79v.33h-5.42a2.81,2.81,0,0,0,.68,1.83,2,2,0,0,0,1.52.63,1.85,1.85,0,0,0,1.15-.35A2.41,2.41,0,0,0,113.75,23.07Zm-4-2h4.05a2.46,2.46,0,0,0-.46-1.37,1.9,1.9,0,0,0-1.53-.71,1.94,1.94,0,0,0-1.42.57A2.19,2.19,0,0,0,109.71,21.08Z"/><path class="cls-1" d="M123.48,25.41l-3.89-10H121l2.6,7.28c.21.58.39,1.13.53,1.64.16-.55.34-1.09.54-1.64l2.71-7.28h1.35l-3.92,10Z"/><path class="cls-1" d="M129.55,16.8V15.39h1.23V16.8Zm0,8.61V18.15h1.23v7.26Z"/><path class="cls-1" d="M137.36,25.41V24.5a2.28,2.28,0,0,1-2,1.08,2.86,2.86,0,0,1-1.6-.48,3.15,3.15,0,0,1-1.12-1.34,4.56,4.56,0,0,1-.4-2,5.16,5.16,0,0,1,.36-2,2.8,2.8,0,0,1,1.09-1.36,2.85,2.85,0,0,1,1.62-.47,2.52,2.52,0,0,1,1.17.27,2.45,2.45,0,0,1,.83.73v-3.6h1.22v10Zm-3.89-3.62a3.15,3.15,0,0,0,.59,2.08,1.76,1.76,0,0,0,1.39.69,1.74,1.74,0,0,0,1.37-.66,3.07,3.07,0,0,0,.56-2,3.46,3.46,0,0,0-.57-2.19,1.79,1.79,0,0,0-1.42-.69,1.71,1.71,0,0,0-1.37.67A3.33,3.33,0,0,0,133.47,21.79Z"/><path class="cls-1" d="M145.17,24.52a4.68,4.68,0,0,1-1.31.82,3.78,3.78,0,0,1-1.36.24,2.64,2.64,0,0,1-1.84-.59A1.92,1.92,0,0,1,140,23.5a2,2,0,0,1,.24-1,2,2,0,0,1,.64-.7,3,3,0,0,1,.88-.41,10.42,10.42,0,0,1,1.1-.18,10.84,10.84,0,0,0,2.19-.43c0-.17,0-.27,0-.32a1.38,1.38,0,0,0-.35-1.06,2,2,0,0,0-1.4-.41,2.18,2.18,0,0,0-1.28.3,1.81,1.81,0,0,0-.61,1.08l-1.21-.17a3,3,0,0,1,.54-1.24,2.45,2.45,0,0,1,1.09-.74,4.85,4.85,0,0,1,1.65-.25,4.27,4.27,0,0,1,1.51.22,1.9,1.9,0,0,1,.85.55,1.93,1.93,0,0,1,.38.83,5.86,5.86,0,0,1,.07,1.14v1.64a15.86,15.86,0,0,0,.08,2.17,2.6,2.6,0,0,0,.31.87h-1.29A2.58,2.58,0,0,1,145.17,24.52Zm-.1-2.75a9.16,9.16,0,0,1-2,.46,5.14,5.14,0,0,0-1.07.25,1.08,1.08,0,0,0-.49.4,1.06,1.06,0,0,0-.17.58,1,1,0,0,0,.38.82,1.58,1.58,0,0,0,1.09.33,2.5,2.5,0,0,0,1.26-.31,1.9,1.9,0,0,0,.81-.85,2.86,2.86,0,0,0,.2-1.23Z"/><line class="cls-1" x1="0.92" x2="179.42"/><line class="cls-1" x1="151.94" y1="22.54" x2="176.78" y2="22.54"/><polygon class="cls-1" points="174.5 19.37 174.5 25.71 178.35 22.54 174.5 19.37"/></g></g></svg>