<svg xmlns="http://www.w3.org/2000/svg" viewBox="0 0 65.47 65.47"><defs><style>.cls-1{fill:#f37f77;}</style></defs><title>icon-ai</title><g id="Capa_2" data-name="Capa 2"><g id="Capa_1-2" data-name="Capa 1"><path class="cls-1" d="M61.46,65.47H4a4,4,0,0,1-4-4V4A4,4,0,0,1,4,0H61.46a4,4,0,0,1,4,4V61.46A4,4,0,0,1,61.46,65.47ZM4,1A3,3,0,0,0,1,4V61.46a3,3,0,0,0,3,3H61.46a3,3,0,0,0,3-3V4a3,3,0,0,0-3-3Z"/><path class="cls-1" d="M23,40.34l-1.78,6.43H15.33L23,21.7h7.44l7.78,25.07h-6.1l-1.94-6.43Zm6.37-4.25-1.57-5.31c-.44-1.49-.89-3.35-1.26-4.84h-.08c-.37,1.49-.74,3.38-1.15,4.84l-1.49,5.31Z"/><path class="cls-1" d="M47,23.52a2.84,2.84,0,0,1-3,2.83,2.85,2.85,0,1,1,0-5.69A2.83,2.83,0,0,1,47,23.52ZM41.14,46.77V28.58H46.8V46.77Z"/></g></g></svg>