<svg xmlns="http://www.w3.org/2000/svg" viewBox="0 0 65.47 65.47"><defs><style>.cls-1{fill:#f37f77;}</style></defs><title>icon-ps</title><g id="Capa_2" data-name="Capa 2"><g id="Capa_1-2" data-name="Capa 1"><path class="cls-1" d="M61.46,65.47H4a4,4,0,0,1-4-4V4A4,4,0,0,1,4,0H61.46a4,4,0,0,1,4,4V61.46A4,4,0,0,1,61.46,65.47ZM4,1A3,3,0,0,0,1,4V61.46a3,3,0,0,0,3,3H61.46a3,3,0,0,0,3-3V4a3,3,0,0,0-3-3Z"/><path class="cls-1" d="M15.85,22a47.4,47.4,0,0,1,7.67-.52c3.49,0,6,.67,7.66,2a7.34,7.34,0,0,1,2.68,5.8,8,8,0,0,1-2.31,6c-1.93,1.82-4.8,2.64-8.15,2.64a15,15,0,0,1-1.93-.11v9H15.85Zm5.62,11.39a8.75,8.75,0,0,0,1.9.15c3,0,4.87-1.53,4.87-4.1,0-2.3-1.6-3.68-4.43-3.68a9.78,9.78,0,0,0-2.34.22Z"/><path class="cls-1" d="M36.46,41.82a11,11,0,0,0,4.87,1.38c1.71,0,2.42-.59,2.42-1.53s-.56-1.37-2.68-2.08c-3.76-1.26-5.21-3.31-5.17-5.47,0-3.38,2.9-5.95,7.4-5.95a12.22,12.22,0,0,1,5.14,1l-1,3.91a8.88,8.88,0,0,0-3.94-1c-1.38,0-2.16.55-2.16,1.49s.71,1.3,2.94,2.08c3.46,1.19,4.91,2.94,4.95,5.62,0,3.38-2.68,5.87-7.89,5.87a13,13,0,0,1-5.88-1.26Z"/></g></g></svg>