<svg xmlns="http://www.w3.org/2000/svg" viewBox="0 0 65.47 65.47"><defs><style>.cls-1{fill:#f37f77;}</style></defs><title>icon-mu</title><g id="Capa_2" data-name="Capa 2"><g id="Capa_1-2" data-name="Capa 1"><path class="cls-1" d="M61.46,65.47H4a4,4,0,0,1-4-4V4A4,4,0,0,1,4,0H61.46a4,4,0,0,1,4,4V61.46A4,4,0,0,1,61.46,65.47ZM4,1A3,3,0,0,0,1,4V61.46a3,3,0,0,0,3,3H61.46a3,3,0,0,0,3-3V4a3,3,0,0,0-3-3Z"/><path class="cls-1" d="M29,37.17c-.12-3-.23-6.66-.23-10.3h-.11c-.78,3.2-1.82,6.77-2.79,9.71l-3.05,9.78H18.36l-2.67-9.71c-.82-2.94-1.68-6.51-2.27-9.78h-.08c-.15,3.38-.26,7.25-.44,10.38l-.45,9.52H7.2L8.8,21.7h7.56l2.45,8.37c.78,2.9,1.56,6,2.12,9H21c.71-2.9,1.57-6.21,2.38-9L26.1,21.7h7.4l1.38,25.07H29.34Z"/><path class="cls-1" d="M56.19,40.93c0,2.38.08,4.32.15,5.84H51.43l-.26-2.57h-.11a6.49,6.49,0,0,1-5.69,3c-3.69,0-6.4-2.31-6.4-7.92V28.58h5.69v9.78c0,2.64.86,4.24,2.83,4.24a3,3,0,0,0,2.82-2,3.1,3.1,0,0,0,.19-1.22V28.58h5.69Z"/></g></g></svg>