<svg xmlns="http://www.w3.org/2000/svg" viewBox="0 0 65.47 65.47"><defs><style>.cls-1{fill:#f37f77;}</style></defs><title>icon-id</title><g id="Capa_2" data-name="Capa 2"><g id="Capa_1-2" data-name="Capa 1"><path class="cls-1" d="M61.46,65.47H4a4,4,0,0,1-4-4V4A4,4,0,0,1,4,0H61.46a4,4,0,0,1,4,4V61.46A4,4,0,0,1,61.46,65.47ZM4,1A3,3,0,0,0,1,4V61.46a3,3,0,0,0,3,3H61.46a3,3,0,0,0,3-3V4a3,3,0,0,0-3-3Z"/><path class="cls-1" d="M23.7,21.7V46.77H18V21.7Z"/><path class="cls-1" d="M45.94,20.36v21c0,2,.08,4.2.15,5.43h-5l-.26-2.68h-.07a6.35,6.35,0,0,1-5.69,3.09c-4.32,0-7.78-3.68-7.78-9.34,0-6.13,3.8-9.67,8.15-9.67,2.23,0,4,.78,4.8,2h.07V20.36ZM40.29,36.28c0-.3,0-.7-.07-1a3.41,3.41,0,0,0-3.32-2.79c-2.56,0-3.9,2.3-3.9,5.17,0,3.09,1.52,5,3.87,5A3.31,3.31,0,0,0,40.14,40a4.79,4.79,0,0,0,.15-1.3Z"/></g></g></svg>