<svg xmlns="http://www.w3.org/2000/svg" viewBox="0 0 65.47 65.47"><defs><style>.cls-1{fill:#f37f77;}</style></defs><title>icon-unity</title><g id="Capa_2" data-name="Capa 2"><g id="Capa_1-2" data-name="Capa 1"><path class="cls-1" d="M61.46,65.47H4a4,4,0,0,1-4-4V4A4,4,0,0,1,4,0H61.46a4,4,0,0,1,4,4V61.46A4,4,0,0,1,61.46,65.47ZM4,1A3,3,0,0,0,1,4V61.46a3,3,0,0,0,3,3H61.46a3,3,0,0,0,3-3V4a3,3,0,0,0-3-3Z"/><path class="cls-1" d="M11.14,30.39c.13-.15.26-.29.4-.43q5.25-5.31,10.52-10.6A1.31,1.31,0,0,1,22.9,19c1.23,0,2.46,0,3.68,0a.63.63,0,0,0,.64-.38c.58-1.08,1.17-2.15,1.79-3.21a1,1,0,0,1,.55-.46q7.48-2,15-4l.35-.09c.33,1.24.66,2.46,1,3.67,1,3.78,2,7.57,3,11.34A1.29,1.29,0,0,1,48.67,27c-.63,1-1.23,2.07-1.82,3.12a.77.77,0,0,0,0,.63c.61,1.1,1.27,2.18,1.89,3.28a1,1,0,0,1,.11.7q-2,7.44-4,14.86a1.49,1.49,0,0,1-.11.26l-3.73-1-11.32-3a1.05,1.05,0,0,1-.74-.57c-.55-1-1.15-2-1.7-3.07a.71.71,0,0,0-.75-.46c-1.28,0-2.56,0-3.84,0a.84.84,0,0,1-.58-.21Q16.65,36,11.23,30.55A1,1,0,0,1,11.14,30.39ZM19,28.63h.58c4.11,0,8.22-.09,12.32-.11a.85.85,0,0,0,.85-.52Q35.85,22.59,39,17.18c0-.09.07-.19.12-.31a1.29,1.29,0,0,0-.2,0c-3.75,1-7.49,1.95-11.23,2.94a1.34,1.34,0,0,0-.54.34l-7.79,8ZM42.47,42.09c.07-.2.12-.33.16-.46,1-3.62,2-7.24,3-10.87a1.63,1.63,0,0,0,0-.79c-.85-3.06-1.72-6.12-2.58-9.18-.18-.66-.37-1.32-.58-2.06-.12.18-.2.28-.26.39Q39.11,24.6,36,30.06a.67.67,0,0,0,.05.79l6.12,10.71C42.23,41.72,42.33,41.87,42.47,42.09Zm-3.33,2c-.08-.17-.11-.27-.16-.36-2.08-3.65-4.17-7.3-6.24-11a.75.75,0,0,0-.76-.4l-12.49-.18c-.11,0-.23,0-.4.05.09.11.12.17.17.22q4,4.13,7.93,8.26a1.49,1.49,0,0,0,.65.36l9.9,2.65Z"/></g></g></svg>