<svg xmlns="http://www.w3.org/2000/svg" viewBox="0 0 16.81 25.22"><defs><style>.cls-1{fill:#f37f77;}</style></defs><title>icon-telefono</title><g id="Capa_2" data-name="Capa 2"><g id="Capa_1-2" data-name="Capa 1"><path class="cls-1" d="M14.19,2.1a.52.52,0,0,1,.52.53v20a.52.52,0,0,1-.52.53H2.63a.53.53,0,0,1-.53-.53v-20a.53.53,0,0,1,.53-.53Zm2.62,0A2.1,2.1,0,0,0,14.71,0H2.1A2.1,2.1,0,0,0,0,2.1v21a2.1,2.1,0,0,0,2.1,2.1H14.71a2.1,2.1,0,0,0,2.1-2.1Zm-10,1H10a.53.53,0,0,1,.53.53A.52.52,0,0,1,10,4.2H6.83a.52.52,0,0,1-.53-.52A.53.53,0,0,1,6.83,3.15ZM8.41,22.07A1.05,1.05,0,1,1,9.46,21,1,1,0,0,1,8.41,22.07Zm5.25-3.16H3.15V5.25H13.66Z"/></g></g></svg>