<svg xmlns="http://www.w3.org/2000/svg" viewBox="0 0 19.62 29.42"><defs><style>.cls-1{fill:#f37f77;}</style></defs><title>icon-ubicacion</title><g id="Capa_2" data-name="Capa 2"><g id="Capa_1-2" data-name="Capa 1"><path class="cls-1" d="M9.81,2.45c3.92,0,7.35,3.21,7.35,6.87s-3.05,8.74-7.35,15.52C5.51,18.06,2.45,13.11,2.45,9.32S5.89,2.45,9.81,2.45M9.81,0C4.66,0,0,4.17,0,9.32s4.25,11.29,9.81,20.1c5.55-8.81,9.81-14.95,9.81-20.1S15,0,9.81,0Zm0,13.49a3.68,3.68,0,1,1,3.68-3.68A3.68,3.68,0,0,1,9.81,13.49Z"/></g></g></svg>