<svg xmlns="http://www.w3.org/2000/svg" viewBox="0 0 65.47 65.47"><defs><style>.cls-1{fill:#f37f77;}</style></defs><title>icon-xd</title><g id="Capa_2" data-name="Capa 2"><g id="Capa_1-2" data-name="Capa 1"><path class="cls-1" d="M61.46,65.47H4a4,4,0,0,1-4-4V4A4,4,0,0,1,4,0H61.46a4,4,0,0,1,4,4V61.46A4,4,0,0,1,61.46,65.47ZM4,1A3,3,0,0,0,1,4V61.46a3,3,0,0,0,3,3H61.46a3,3,0,0,0,3-3V4a3,3,0,0,0-3-3Z"/><path class="cls-1" d="M25.41,46.77l-2.27-4.54c-.93-1.74-1.52-3-2.23-4.5h-.07c-.52,1.45-1.16,2.76-1.94,4.5l-2.08,4.54H10.35L17.6,34.09l-7-12.39h6.51l2.19,4.57c.75,1.53,1.3,2.76,1.9,4.17h.07c.6-1.6,1.08-2.71,1.71-4.17l2.13-4.57h6.47L24.52,33.94,32,46.77Z"/><path class="cls-1" d="M51.75,20.36v21c0,2,.07,4.2.15,5.43h-5l-.26-2.68h-.07a6.34,6.34,0,0,1-5.69,3.09c-4.32,0-7.78-3.68-7.78-9.34,0-6.13,3.8-9.67,8.15-9.67,2.23,0,4,.78,4.8,2h.07V20.36ZM46.09,36.28a8.4,8.4,0,0,0-.07-1,3.39,3.39,0,0,0-3.31-2.79c-2.57,0-3.91,2.3-3.91,5.17,0,3.09,1.53,5,3.87,5A3.3,3.3,0,0,0,45.94,40a4.42,4.42,0,0,0,.15-1.3Z"/></g></g></svg>