<svg xmlns="http://www.w3.org/2000/svg" viewBox="0 0 281.77 124.82"><defs><style>.cls-1{fill:#fff;}</style></defs><title>icon-logo-blanco</title><g id="Capa_2" data-name="Capa 2"><g id="Capa_1-2" data-name="Capa 1"><path class="cls-1" d="M63,29.51A1,1,0,0,1,63.84,31a2.78,2.78,0,0,1-1.45,1.68,6.68,6.68,0,0,1-3.55.67,34.82,34.82,0,0,1-6.2-.91h-.06q-2.05,5.12-3.86,10.15t-3,9.72a31.87,31.87,0,0,0-.63,3.56,31.27,31.27,0,0,0-.24,4.39,30.22,30.22,0,0,0,.39,4.49,12.46,12.46,0,0,0,1.26,3.88,6.65,6.65,0,0,0,2.38,2.59,5.33,5.33,0,0,0,3.71.54,1.58,1.58,0,0,1,1,.15.92.92,0,0,1,.45.55.88.88,0,0,1-.12.69,1.29,1.29,0,0,1-.75.54,13.18,13.18,0,0,1-6.33.48,12.89,12.89,0,0,1-5.57-2.35A13.15,13.15,0,0,1,36,60.52a40.81,40.81,0,0,1,1.44-9.69Q38.72,46,40.62,40.77t4-10.42q-2.48-.66-4.94-1.41l-4.88-1.48c-1.28,2.25-2.62,4.42-4,6.51a63.41,63.41,0,0,1-4.37,5.84q-6.81,7.83-14.39,7.89h-.12a11,11,0,0,1-9.39-4.4A12.18,12.18,0,0,1,.46,38.88a16.42,16.42,0,0,1-.39-5.39,20,20,0,0,1,1.47-6.12A19.47,19.47,0,0,1,4.82,22a15.74,15.74,0,0,1,5.18-4,16,16,0,0,1,6.87-1.69,9.76,9.76,0,0,1,6.56,1.69,6.28,6.28,0,0,1,2.41,4.4v.18c1.32.32,2.61.62,3.85.9s2.59.64,4,1.08l5.09-8.73a51.33,51.33,0,0,1,5.33-7.64,32.43,32.43,0,0,1,2.67-2.83,16.61,16.61,0,0,1,2.68-2,12,12,0,0,1,6.39-1.93,4.22,4.22,0,0,1,3.79,1.81,7,7,0,0,1,.87,4.06A29.23,29.23,0,0,1,59.26,14c-.68,2.32-1.54,4.84-2.56,7.55s-2.12,5.55-3.28,8.52c1.08.21,2,.38,2.89.52a21.64,21.64,0,0,0,2.29.27,6.48,6.48,0,0,0,1.95,0,4.52,4.52,0,0,0,.82-.27.17.17,0,0,0,.12-.06v-.06a1.63,1.63,0,0,1,.6-.79A1,1,0,0,1,63,29.51ZM14.28,44.93a8.64,8.64,0,0,0,4.84-1.63,25.28,25.28,0,0,0,4.79-4.24,56.14,56.14,0,0,0,4.52-5.81c1.44-2.13,2.79-4.26,4-6.39-1.24-.36-2.43-.68-3.55-1l-3.43-.84a6.6,6.6,0,0,1-4.4,4.33,5.62,5.62,0,0,1-3.22.3,4.09,4.09,0,0,1-1.54-.78,2.59,2.59,0,0,1-.54-2.83,4.68,4.68,0,0,1,1.54-2.2,7.57,7.57,0,0,1,2.8-1.47,8,8,0,0,1,3.19-.12,5.11,5.11,0,0,0-1.11-2.08,3.19,3.19,0,0,0-2.44-1.12,8,8,0,0,0-4.67,1.27,11.84,11.84,0,0,0-3.4,3.4,17.79,17.79,0,0,0-2.17,4.52,23.7,23.7,0,0,0-1,4.6,33.29,33.29,0,0,0-.15,3.86,14.3,14.3,0,0,0,.57,3.91,6.91,6.91,0,0,0,1.8,3A4.87,4.87,0,0,0,14.28,44.93ZM36,25.3c1.6.44,3.2.9,4.78,1.38s3.18.95,4.79,1.39c1.12-2.89,2.18-5.64,3.16-8.25s1.78-5,2.38-7.17c.28-1,.54-1.89.78-2.77s.42-1.66.54-2.32a5.14,5.14,0,0,0,.1-1.65.83.83,0,0,0-.64-.79,2.36,2.36,0,0,0-2,.64A16.56,16.56,0,0,0,47.34,8.2a43.21,43.21,0,0,0-2.92,3.7c-1,1.42-2,2.91-3,4.45s-2,3.1-2.9,4.64S36.74,24,36,25.3Z"/><path class="cls-1" d="M84.43,26.14a16.2,16.2,0,0,1-.9,4.31c-.53,1.5-1.12,3-1.78,4.42s-1.32,2.82-2,4.13a33.32,33.32,0,0,0-1.53,3.4,5.28,5.28,0,0,0-.45,2.32q.09.87,1.29.87a2.75,2.75,0,0,0,1.51-.87,20.66,20.66,0,0,0,2.1-2.29c.77-.94,1.56-2,2.38-3.19s1.6-2.36,2.32-3.53,1.36-2.27,1.93-3.34a20,20,0,0,0,1.2-2.62.9.9,0,0,1,.6-.6,1.33,1.33,0,0,1,.79,0,1,1,0,0,1,.57.48.74.74,0,0,1,0,.78c-.32.69-.78,1.62-1.39,2.81S89.74,35.66,88.92,37s-1.72,2.7-2.68,4.06a40.41,40.41,0,0,1-3,3.74,19,19,0,0,1-3.11,2.77,5.31,5.31,0,0,1-3,1.08,3,3,0,0,1-2-.57,4.61,4.61,0,0,1-1.39-1.72A8.2,8.2,0,0,1,73,43.93a9.66,9.66,0,0,1,0-2.74,23.25,23.25,0,0,1,1.14-4.87c.56-1.61,1.18-3.14,1.84-4.61s1.31-2.81,2-4a25.4,25.4,0,0,0,1.44-3.2,4.15,4.15,0,0,0,.33-2.07c-.1-.49-.57-.71-1.41-.67a4.08,4.08,0,0,0-1.87,1.06,26.07,26.07,0,0,0-2.62,2.53c-.94,1-1.9,2.14-2.86,3.37s-1.83,2.4-2.59,3.52c-.76,1.57-1.55,3.12-2.38,4.67s-1.55,3-2.2,4.36a24.94,24.94,0,0,0-1.41,3.62,3.41,3.41,0,0,0,0,2.41q.24.48-.39,1a2.66,2.66,0,0,1-1.63.54,3.67,3.67,0,0,1-2-.63,4.2,4.2,0,0,1-1.59-2.47,7.17,7.17,0,0,1,.06-3.79,38.42,38.42,0,0,1,1.56-5c.69-1.79,1.45-3.61,2.29-5.48s1.61-3.58,2.29-5.15a34.17,34.17,0,0,0,1.51-4c.32-1.13.32-1.85,0-2.17s-.15-.52.39-.85a4.39,4.39,0,0,1,2.05-.54,5.16,5.16,0,0,1,2.49.54,3.64,3.64,0,0,1,1.81,2.41,4.82,4.82,0,0,1,.18,1.72,12.14,12.14,0,0,1-.3,2c.76-.89,1.54-1.73,2.32-2.53a19.07,19.07,0,0,1,2.38-2.11A14.13,14.13,0,0,1,78,19.21a5.17,5.17,0,0,1,2.22-.54,3.64,3.64,0,0,1,3.5,2A8.92,8.92,0,0,1,84.43,26.14Z"/><path class="cls-1" d="M105.75,23.43a1.63,1.63,0,0,1,.27-.9,2.81,2.81,0,0,1,.69-.73,1,1,0,0,0-1-.72,2.78,2.78,0,0,0-1.87.75,13.84,13.84,0,0,0-2.2,2.35A33.77,33.77,0,0,0,99.24,28c-.84,1.5-1.68,3.18-2.53,5a23.19,23.19,0,0,0-1.29,3.77,18.12,18.12,0,0,0-.57,3.85,10,10,0,0,0,.36,3.22,2.58,2.58,0,0,0,1.5,1.81,2.36,2.36,0,0,0,2.65-.81,19.89,19.89,0,0,0,2.83-3.65,51.35,51.35,0,0,0,2.8-5q1.37-2.78,2.5-5.06c.76-2,1.61-4,2.53-6.23s1.84-4.35,2.74-6.48,1.77-4.17,2.59-6.14,1.53-3.72,2.11-5.27,1-2.81,1.26-3.79.29-1.58.09-1.78-.15-.52.39-.84a4.4,4.4,0,0,1,2-.54,5.29,5.29,0,0,1,2.5.54A3.59,3.59,0,0,1,125.56,3a7.47,7.47,0,0,1-.24,3.88,51.7,51.7,0,0,1-2,5.81c-.86,2.17-1.88,4.51-3,7s-2.34,5-3.52,7.43-2.31,4.81-3.38,7.08-1.92,4.25-2.59,6a16.76,16.76,0,0,0-1.14,4.06c-.1,1,.19,1.47.87,1.39a3,3,0,0,0,1.54-1,29.61,29.61,0,0,0,2.08-2.32c.76-1,1.54-2,2.34-3.16s1.57-2.33,2.29-3.5,1.37-2.26,1.93-3.31a18.73,18.73,0,0,0,1.2-2.59.89.89,0,0,1,.61-.6,1.3,1.3,0,0,1,.78,0,1,1,0,0,1,.57.48.74.74,0,0,1,0,.78c-.32.69-.78,1.62-1.38,2.81s-1.32,2.44-2.14,3.79-1.72,2.7-2.68,4.06a38.81,38.81,0,0,1-3,3.74,19.38,19.38,0,0,1-3.1,2.77,5.36,5.36,0,0,1-3,1.08,3.44,3.44,0,0,1-3.41-1.84,8.53,8.53,0,0,1-.87-5,26.8,26.8,0,0,1-2.41,3.34,12,12,0,0,1-2.71,2.38,7.32,7.32,0,0,1-3.13,1.08A7.11,7.11,0,0,1,92.44,48,6.58,6.58,0,0,1,89,45.17a9.72,9.72,0,0,1-1.24-4.07,15,15,0,0,1,.36-4.57,30.41,30.41,0,0,1,1.33-4.37,31.78,31.78,0,0,1,3.22-6.29,20.55,20.55,0,0,1,3.76-4.28,13.28,13.28,0,0,1,4.1-2.38,12.06,12.06,0,0,1,4.27-.66,9.25,9.25,0,0,1,1.54.27,4.47,4.47,0,0,1,1.5.7A4.09,4.09,0,0,1,109,20.81a3.92,3.92,0,0,1,.48,2,2.39,2.39,0,0,1-.54,1.74,1.6,1.6,0,0,1-1.33.61,1.91,1.91,0,0,1-1.29-.49A1.57,1.57,0,0,1,105.75,23.43Z"/><path class="cls-1" d="M123.63,31a.91.91,0,0,1-.57.48,1.11,1.11,0,0,1-.72,0,1,1,0,0,1-.55-.45.89.89,0,0,1,0-.82c.12-.36.34-.91.67-1.65s.64-1.53,1-2.35.64-1.63,1-2.41a12.86,12.86,0,0,0,.66-2,6,6,0,0,1-2.37-2.1,5.05,5.05,0,0,1-1-2.89,5.26,5.26,0,0,1,1-3.2,3.34,3.34,0,0,1,2.89-1.32,2.67,2.67,0,0,1,2.07,1,3.73,3.73,0,0,1,.94,2.38c0,.52,0,1.25-.09,2.17a12.25,12.25,0,0,1-.33,2.29,1.56,1.56,0,0,0,.81.3,9.53,9.53,0,0,0,1.11.06,5.76,5.76,0,0,0,2.08-.3,9.3,9.3,0,0,0,1.3-.63l1.08-.64a3,3,0,0,1,1.44-.3,5.22,5.22,0,0,1,2.41.61,3.62,3.62,0,0,1,1.75,2.34,7.46,7.46,0,0,1-.18,4.25,34.69,34.69,0,0,1-2,5.21c-.86,1.8-1.79,3.59-2.77,5.36s-1.81,3.34-2.47,4.72a11.61,11.61,0,0,0-1.14,3.32q-.15,1.23,1.23,1.11a3.21,3.21,0,0,0,1.51-1,25.91,25.91,0,0,0,2.11-2.32c.76-1,1.54-2,2.34-3.16s1.57-2.33,2.29-3.5,1.37-2.26,1.93-3.31a18.73,18.73,0,0,0,1.2-2.59.89.89,0,0,1,.61-.6,1.3,1.3,0,0,1,.78,0,1,1,0,0,1,.57.48.74.74,0,0,1,0,.78c-.32.69-.78,1.62-1.38,2.81s-1.32,2.44-2.14,3.79-1.72,2.7-2.68,4.06a40.41,40.41,0,0,1-3,3.74,19.38,19.38,0,0,1-3.1,2.77,5.36,5.36,0,0,1-3,1.08,3.52,3.52,0,0,1-2.08-.48,4,4,0,0,1-1.42-1.54,6.77,6.77,0,0,1-.72-2.41,12.86,12.86,0,0,1,0-3,22.75,22.75,0,0,1,1.14-5q.92-2.66,2-5.21c.72-1.71,1.43-3.3,2.11-4.79a31.76,31.76,0,0,0,1.5-3.79,9.49,9.49,0,0,1-2.86.57,10,10,0,0,1-3.16-.33q-.18.42-.63,1.53c-.3.75-.63,1.55-1,2.41s-.73,1.71-1.09,2.53S123.87,30.58,123.63,31Z"/><path class="cls-1" d="M167.89,29.21a1,1,0,0,1,.36,1.33c-.68,1.44-1.5,3-2.44,4.54a43.52,43.52,0,0,1-3.19,4.64,39.51,39.51,0,0,1-3.76,4.15,20.46,20.46,0,0,1-4.13,3.1,13,13,0,0,1-4.36,1.57A8,8,0,0,1,146,48a6.63,6.63,0,0,1-3.46-2.8,9.69,9.69,0,0,1-1.24-4.07,15.16,15.16,0,0,1,.36-4.6A31.74,31.74,0,0,1,143,32.16a30.62,30.62,0,0,1,3.22-6.23,20.43,20.43,0,0,1,3.76-4.19,14.45,14.45,0,0,1,4.1-2.4,12,12,0,0,1,4.27-.79,4.4,4.4,0,0,1,3.29,1.09,3.88,3.88,0,0,1,1.05,2.83,9.38,9.38,0,0,1-1,3.85A17.31,17.31,0,0,1,159,30.45a21.47,21.47,0,0,1-4.31,3.67,19.46,19.46,0,0,1-5.66,2.5,21.71,21.71,0,0,0-.6,3.1,13.34,13.34,0,0,0-.06,2.8,5.66,5.66,0,0,0,.57,2.11,1.89,1.89,0,0,0,1.36,1,5.1,5.1,0,0,0,2.86-.39,13.44,13.44,0,0,0,3.13-1.9,26.64,26.64,0,0,0,3.13-3,41.41,41.41,0,0,0,2.89-3.55,44,44,0,0,0,2.41-3.71,24.29,24.29,0,0,0,1.65-3.4,1.07,1.07,0,0,1,.64-.66A1,1,0,0,1,167.89,29.21ZM150.25,33a11.4,11.4,0,0,0-.49,1.21,16.41,16.41,0,0,0,5.94-3.46,17.82,17.82,0,0,0,3.46-4.34,8.5,8.5,0,0,0,1.17-3.7c0-1.05-.33-1.59-1.05-1.63-1.09,0-2.45,1-4.1,3.13A42.94,42.94,0,0,0,150.25,33Z"/><path class="cls-1" d="M181.56,23.43a1.63,1.63,0,0,1,.27-.9,2.81,2.81,0,0,1,.69-.73,1,1,0,0,0-1-.72,2.8,2.8,0,0,0-1.87.75,14.25,14.25,0,0,0-2.2,2.35,33.77,33.77,0,0,0-2.44,3.8c-.84,1.5-1.68,3.18-2.52,5a22.28,22.28,0,0,0-1.3,3.77,18.12,18.12,0,0,0-.57,3.85,10,10,0,0,0,.36,3.22,2.56,2.56,0,0,0,1.51,1.81,1.89,1.89,0,0,0,1.77-.18,7,7,0,0,0,1.87-1.69A25.65,25.65,0,0,0,178.1,41c.66-1.08,1.3-2.21,1.92-3.4s1.23-2.37,1.81-3.55,1.13-2.28,1.65-3.28c.57-1.33,1.12-2.58,1.66-3.77s1-2.24,1.36-3.19a14,14,0,0,0,.72-2.41q.18-1-.18-1.35c-.28-.24-.15-.52.39-.85a4.33,4.33,0,0,1,2-.54,5.32,5.32,0,0,1,2.5.54,3.63,3.63,0,0,1,1.83,2.41,7.46,7.46,0,0,1-.18,4.25,33.65,33.65,0,0,1-2,5.21q-1.29,2.7-2.77,5.36c-1,1.76-1.8,3.34-2.46,4.72a11.38,11.38,0,0,0-1.15,3.32c-.1.82.31,1.19,1.24,1.11a3.19,3.19,0,0,0,1.5-1,24.48,24.48,0,0,0,2.11-2.32c.76-1,1.55-2,2.38-3.16s1.58-2.33,2.29-3.5,1.33-2.26,1.89-3.31a19,19,0,0,0,1.21-2.59.9.9,0,0,1,.6-.6,1.3,1.3,0,0,1,.78,0,1,1,0,0,1,.57.48.74.74,0,0,1,0,.78c-.32.69-.78,1.62-1.38,2.81S197,35.66,196.22,37s-1.72,2.7-2.68,4.06a38.81,38.81,0,0,1-3,3.74,19,19,0,0,1-3.1,2.77,5.36,5.36,0,0,1-3,1.08A3.47,3.47,0,0,1,181,46.79a8.28,8.28,0,0,1-.85-5,29.73,29.73,0,0,1-2.41,3.4A11.12,11.12,0,0,1,175,47.58a7.46,7.46,0,0,1-3.13,1.08,7.33,7.33,0,0,1-3.64-.66,6.58,6.58,0,0,1-3.46-2.83,9.86,9.86,0,0,1-1.24-4.07,15,15,0,0,1,.36-4.57,31.74,31.74,0,0,1,1.33-4.37,32.33,32.33,0,0,1,3.22-6.29,20.55,20.55,0,0,1,3.76-4.28,13.28,13.28,0,0,1,4.1-2.38,12.06,12.06,0,0,1,4.27-.66,9.08,9.08,0,0,1,1.54.27,4.61,4.61,0,0,1,1.51.7,4.06,4.06,0,0,1,1.17,1.29,3.92,3.92,0,0,1,.48,2,2.21,2.21,0,0,1-.6,1.8,1.59,1.59,0,0,1-1.27.55,1.91,1.91,0,0,1-1.29-.49A1.57,1.57,0,0,1,181.56,23.43Z"/><path class="cls-1" d="M107.43,64.42a18.83,18.83,0,0,1,5.27,3.4,18.41,18.41,0,0,1,3.92,4.94,14.44,14.44,0,0,1,1.71,5.72,9.88,9.88,0,0,1-1.26,5.69,2.35,2.35,0,0,1-1.72,1.08,6,6,0,0,1-2.47,0,4.61,4.61,0,0,1-2-.81.91.91,0,0,1-.28-1.35,11.23,11.23,0,0,0,1.93-5.78,11.6,11.6,0,0,0-1-5.09,9.64,9.64,0,0,0-2.8-3.65,5.91,5.91,0,0,0-3.65-1.38,1.75,1.75,0,0,0-1.74,1.32,9.17,9.17,0,0,0-.42,3.35,33.41,33.41,0,0,0,.48,4.51c.28,1.67.61,3.28,1,4.85s.76,3,1.15,4.31.67,2.25.87,2.86q1,3.06,2,6.23A47.41,47.41,0,0,1,110,101a25.29,25.29,0,0,1-.78,13,13.81,13.81,0,0,1-3.31,5.18,18,18,0,0,1-5.66,3.73,23.75,23.75,0,0,1-9.34,1.87c-1.64,0-3.39-.07-5.24-.21a24.34,24.34,0,0,1-5-.88,14.82,14.82,0,0,1-7.41-4.27,12.38,12.38,0,0,1-3.13-6.93A15.7,15.7,0,0,1,71,105a16.24,16.24,0,0,1,4-6.39,11.44,11.44,0,0,1,6.5-3.25,10.46,10.46,0,0,1,4.33.36A12.73,12.73,0,0,1,90.39,98a9.87,9.87,0,0,1,3.07,4,7.72,7.72,0,0,1-.06,5.6A2.1,2.1,0,0,1,91.72,109a7.11,7.11,0,0,1-2.68.09,5.28,5.28,0,0,1-2.29-.87,1.11,1.11,0,0,1-.45-1.57,7.88,7.88,0,0,0,1-3.76,5.77,5.77,0,0,0-.84-3,4.8,4.8,0,0,0-2-1.81,4.38,4.38,0,0,0-2.5-.39,9.4,9.4,0,0,0-5.12,2.56,13.65,13.65,0,0,0-3.49,5.51,14,14,0,0,0-.75,6.62,9.48,9.48,0,0,0,2.5,5.36,12.43,12.43,0,0,0,6,3.62,15.78,15.78,0,0,0,7.62.18,16.42,16.42,0,0,0,6.62-3,11.79,11.79,0,0,0,3.91-5.3,18.45,18.45,0,0,0,1.09-5.87,30.17,30.17,0,0,0-.49-6,53.6,53.6,0,0,0-1.47-6.11c-.62-2-1.28-4.09-2-6.14Q95,85.14,94,81.46a29.94,29.94,0,0,1-1.17-7.22,12.3,12.3,0,0,1,1-5.91,7.87,7.87,0,0,1,1.3-2.16A8.06,8.06,0,0,1,97,64.54a6.76,6.76,0,0,1,2.26-.9,11.83,11.83,0,0,1,2.8-.27,17,17,0,0,1,2.86.3A12.65,12.65,0,0,1,107.43,64.42Z"/><path class="cls-1" d="M136.16,83.09a1.69,1.69,0,0,1,.27-.91,2.62,2.62,0,0,1,.69-.72,1,1,0,0,0-1-.72,2.78,2.78,0,0,0-1.87.75,13.46,13.46,0,0,0-2.2,2.35,32.21,32.21,0,0,0-2.44,3.79q-1.26,2.27-2.53,5a23.19,23.19,0,0,0-1.29,3.77,18.12,18.12,0,0,0-.57,3.85,10,10,0,0,0,.36,3.22,2.6,2.6,0,0,0,1.5,1.81,1.91,1.91,0,0,0,1.78-.18,7.31,7.31,0,0,0,1.87-1.69,25.27,25.27,0,0,0,1.92-2.77c.67-1.08,1.31-2.22,1.93-3.4s1.22-2.37,1.81-3.55,1.13-2.28,1.65-3.29c.56-1.32,1.12-2.58,1.66-3.76s1-2.25,1.35-3.19a14.12,14.12,0,0,0,.73-2.41q.18-1-.18-1.35c-.29-.25-.16-.53.39-.85a4.32,4.32,0,0,1,2-.54,5.27,5.27,0,0,1,2.5.54,3.59,3.59,0,0,1,1.84,2.41,7.46,7.46,0,0,1-.18,4.25,34.19,34.19,0,0,1-2,5.2c-.86,1.81-1.79,3.6-2.77,5.36s-1.81,3.35-2.47,4.73a11.66,11.66,0,0,0-1.14,3.31c-.1.83.31,1.2,1.23,1.12a3.17,3.17,0,0,0,1.51-1,24.34,24.34,0,0,0,2.11-2.31c.76-1,1.55-2,2.37-3.17s1.59-2.32,2.29-3.49,1.34-2.27,1.9-3.31a19.28,19.28,0,0,0,1.2-2.59.89.89,0,0,1,.61-.6,1.3,1.3,0,0,1,.78,0,1,1,0,0,1,.57.48.74.74,0,0,1,0,.78c-.32.69-.78,1.62-1.38,2.8s-1.32,2.45-2.14,3.8-1.72,2.7-2.68,4.06a39,39,0,0,1-3,3.73,18.46,18.46,0,0,1-3.1,2.77,5.3,5.3,0,0,1-3,1.09,3.49,3.49,0,0,1-3.44-1.87,8.37,8.37,0,0,1-.84-5.06,30.24,30.24,0,0,1-2.41,3.41,11,11,0,0,1-2.74,2.43,6.89,6.89,0,0,1-6.77.43,6.62,6.62,0,0,1-3.46-2.83,9.72,9.72,0,0,1-1.24-4.07,15.1,15.1,0,0,1,.36-4.58,30.27,30.27,0,0,1,1.33-4.36,31.51,31.51,0,0,1,3.22-6.29,20.55,20.55,0,0,1,3.76-4.28,13.09,13.09,0,0,1,4.1-2.38,12.06,12.06,0,0,1,4.27-.66,9.25,9.25,0,0,1,1.54.27,4.65,4.65,0,0,1,1.5.69,4.24,4.24,0,0,1,1.18,1.3,3.9,3.9,0,0,1,.48,2,2.21,2.21,0,0,1-.6,1.8,1.64,1.64,0,0,1-1.27.54,2,2,0,0,1-1.29-.48A1.57,1.57,0,0,1,136.16,83.09Z"/><path class="cls-1" d="M168.19,90.07c-.32.69-.78,1.62-1.38,2.8s-1.32,2.45-2.14,3.8-1.72,2.7-2.68,4.06a39,39,0,0,1-3,3.73,18.46,18.46,0,0,1-3.1,2.77,5.3,5.3,0,0,1-3,1.09,3.52,3.52,0,0,1-2.08-.48,4.07,4.07,0,0,1-1.42-1.54,6.77,6.77,0,0,1-.72-2.41,12.86,12.86,0,0,1,0-3,28.65,28.65,0,0,1,1.51-5.6q1.26-3.61,3-7.92t3.67-8.79c1.28-3,2.44-5.74,3.46-8.25s1.82-4.61,2.38-6.29.7-2.67.42-3-.15-.52.39-.85a4.4,4.4,0,0,1,2-.54,5.29,5.29,0,0,1,2.5.54,3.64,3.64,0,0,1,1.84,2.41,7.5,7.5,0,0,1-.24,3.89,52.39,52.39,0,0,1-2,5.81c-.86,2.17-1.88,4.51-3,7s-2.34,5-3.52,7.44-2.31,4.81-3.38,7.08-1.92,4.25-2.59,6a16.64,16.64,0,0,0-1.14,4.06c-.1,1,.19,1.47.87,1.39a3,3,0,0,0,1.54-1A27.58,27.58,0,0,0,158.5,102c.76-1,1.54-2,2.34-3.17s1.57-2.32,2.29-3.49S164.5,93,165.06,92a19.28,19.28,0,0,0,1.2-2.59.89.89,0,0,1,.61-.6,1.3,1.3,0,0,1,.78,0,1,1,0,0,1,.57.48A.74.74,0,0,1,168.19,90.07Z"/><path class="cls-1" d="M181.5,83.09a1.69,1.69,0,0,1,.27-.91,2.62,2.62,0,0,1,.69-.72,1,1,0,0,0-1-.72,2.8,2.8,0,0,0-1.87.75,13.85,13.85,0,0,0-2.2,2.35A33.55,33.55,0,0,0,175,87.63q-1.26,2.27-2.52,5a22.28,22.28,0,0,0-1.3,3.77,18.12,18.12,0,0,0-.57,3.85,10,10,0,0,0,.36,3.22,2.58,2.58,0,0,0,1.51,1.81,1.89,1.89,0,0,0,1.77-.18,7.15,7.15,0,0,0,1.87-1.69,26.69,26.69,0,0,0,1.93-2.77c.66-1.08,1.3-2.22,1.92-3.4s1.23-2.37,1.81-3.55,1.13-2.28,1.66-3.29c.56-1.32,1.11-2.58,1.65-3.76s1-2.25,1.36-3.19a14,14,0,0,0,.72-2.41q.18-1-.18-1.35c-.28-.25-.15-.53.39-.85a4.33,4.33,0,0,1,2-.54,5.32,5.32,0,0,1,2.5.54,3.6,3.6,0,0,1,1.83,2.41,7.46,7.46,0,0,1-.18,4.25,33.17,33.17,0,0,1-2,5.2q-1.29,2.72-2.77,5.36t-2.46,4.73a11.44,11.44,0,0,0-1.15,3.31c-.1.83.31,1.2,1.24,1.12a3.15,3.15,0,0,0,1.5-1A23.07,23.07,0,0,0,190,102c.76-1,1.55-2,2.38-3.17s1.58-2.32,2.29-3.49S196,93,196.55,92a19.54,19.54,0,0,0,1.21-2.59.9.9,0,0,1,.6-.6,1.3,1.3,0,0,1,.78,0,1,1,0,0,1,.57.48.74.74,0,0,1,0,.78c-.32.69-.78,1.62-1.38,2.8s-1.32,2.45-2.14,3.8-1.72,2.7-2.68,4.06a37.46,37.46,0,0,1-3,3.73,18.08,18.08,0,0,1-3.1,2.77,5.28,5.28,0,0,1-3,1.09,3.47,3.47,0,0,1-3.43-1.87,8.29,8.29,0,0,1-.85-5.06,29,29,0,0,1-2.41,3.41,10.87,10.87,0,0,1-2.74,2.43,6.89,6.89,0,0,1-6.77.43,6.62,6.62,0,0,1-3.46-2.83,9.86,9.86,0,0,1-1.24-4.07,15.1,15.1,0,0,1,.36-4.58,31.58,31.58,0,0,1,1.33-4.36,32,32,0,0,1,3.22-6.29,20.55,20.55,0,0,1,3.76-4.28,13.09,13.09,0,0,1,4.1-2.38,12.06,12.06,0,0,1,4.27-.66,9.08,9.08,0,0,1,1.54.27,4.8,4.8,0,0,1,1.51.69,4.21,4.21,0,0,1,1.17,1.3,3.9,3.9,0,0,1,.48,2,2.21,2.21,0,0,1-.6,1.8,1.61,1.61,0,0,1-1.27.54,2,2,0,0,1-1.29-.48A1.57,1.57,0,0,1,181.5,83.09Z"/><path class="cls-1" d="M226.06,89.41a.81.81,0,0,1,.51-.57,1.25,1.25,0,0,1,.81,0,1,1,0,0,1,.67.48.91.91,0,0,1-.06.84c-.41.89-.91,1.88-1.51,3s-1.24,2.24-1.93,3.41a44.4,44.4,0,0,1-2.83,4.27,30.72,30.72,0,0,1-3.28,3.79,16.25,16.25,0,0,1-3.64,2.74,8.57,8.57,0,0,1-3.92,1.12,13,13,0,0,1-2.5-.21q-1-.21-2-.48c-.62-.18-1.25-.34-1.87-.49a10.07,10.07,0,0,0-2.2-.21,15.88,15.88,0,0,0-3,.24l-2,.4a2.83,2.83,0,0,1-1.12.06c-.22-.06-.33-.31-.33-.76a5,5,0,0,1,.87-2.25c.59-1,1.35-2.11,2.29-3.38s2-2.65,3.25-4.15,2.48-3.06,3.77-4.67,2.56-3.2,3.82-4.79,2.4-3.12,3.4-4.6a6.37,6.37,0,0,1-2.41-.51,11.83,11.83,0,0,1-1.68-1,14.29,14.29,0,0,0-1.45-.9,3.61,3.61,0,0,0-1.74-.39,4,4,0,0,0-2.74,1.05,3.36,3.36,0,0,0-1.18,2.62,3.81,3.81,0,0,0,1.36,3,4.2,4.2,0,0,0,3.28,1q.36-.06.12.48A4.86,4.86,0,0,1,206,89.8a7.22,7.22,0,0,1-1.6,1.27,4,4,0,0,1-2.11.57,5.14,5.14,0,0,1-3.58-1.33,4.2,4.2,0,0,1-1.48-3.25,8.94,8.94,0,0,1,.64-3.37A8.65,8.65,0,0,1,199.59,81a8.44,8.44,0,0,1,2.59-1.84,7.68,7.68,0,0,1,3.16-.66,6.57,6.57,0,0,1,2.2.33l2,.72a21.25,21.25,0,0,0,2.32.73,12.85,12.85,0,0,0,3.19.33c1.24,0,2.27,0,3.07-.09s1.5-.14,2.08-.24l1.5-.24a10.18,10.18,0,0,1,1.42-.09q.72,0,.72.6a1.1,1.1,0,0,1-.36.69l-1.24,1.3q-.87.9-2.31,2.43c-1,1-2.16,2.38-3.59,4.07s-3.13,3.76-5.11,6.23-4.27,5.43-6.84,8.88a3.39,3.39,0,0,1,1.39.33l1.5.73c.52.26,1.06.51,1.63.75a4.67,4.67,0,0,0,1.86.36,6.61,6.61,0,0,0,3.77-1.14,18.76,18.76,0,0,0,3.64-3.1,33.76,33.76,0,0,0,3.28-4.22q1.55-2.31,2.74-4.55c.4-.72.76-1.39,1.09-2A13.49,13.49,0,0,0,226.06,89.41Z"/><path class="cls-1" d="M241.23,83.09a1.69,1.69,0,0,1,.27-.91,2.52,2.52,0,0,1,.7-.72,1,1,0,0,0-1-.72,2.77,2.77,0,0,0-1.86.75,13.1,13.1,0,0,0-2.2,2.35,32.21,32.21,0,0,0-2.44,3.79c-.84,1.51-1.69,3.19-2.53,5a23.19,23.19,0,0,0-1.29,3.77,17.54,17.54,0,0,0-.58,3.85,9.7,9.7,0,0,0,.37,3.22,2.6,2.6,0,0,0,1.5,1.81,1.91,1.91,0,0,0,1.78-.18,7.12,7.12,0,0,0,1.86-1.69,23.93,23.93,0,0,0,1.93-2.77c.66-1.08,1.3-2.22,1.93-3.4s1.22-2.37,1.8-3.55,1.14-2.28,1.66-3.29c.56-1.32,1.11-2.58,1.66-3.76s1-2.25,1.35-3.19a14,14,0,0,0,.72-2.41q.18-1-.18-1.35c-.28-.25-.15-.53.39-.85a4.4,4.4,0,0,1,2-.54,5.29,5.29,0,0,1,2.5.54,3.62,3.62,0,0,1,1.84,2.41,7.46,7.46,0,0,1-.18,4.25,35.27,35.27,0,0,1-2,5.2c-.86,1.81-1.79,3.6-2.77,5.36s-1.81,3.35-2.47,4.73a11.66,11.66,0,0,0-1.14,3.31c-.1.83.31,1.2,1.23,1.12a3.22,3.22,0,0,0,1.51-1,23.1,23.1,0,0,0,2.1-2.31c.77-1,1.56-2,2.38-3.17s1.59-2.32,2.29-3.49,1.33-2.27,1.9-3.31a19.28,19.28,0,0,0,1.2-2.59.9.9,0,0,1,.6-.6,1.33,1.33,0,0,1,.79,0,1,1,0,0,1,.57.48.74.74,0,0,1,0,.78c-.32.69-.78,1.62-1.39,2.8s-1.31,2.45-2.13,3.8-1.72,2.7-2.68,4.06a39,39,0,0,1-3,3.73,18.12,18.12,0,0,1-3.11,2.77,5.25,5.25,0,0,1-3,1.09,3.48,3.48,0,0,1-3.43-1.87,8.37,8.37,0,0,1-.84-5.06,31.58,31.58,0,0,1-2.41,3.41,11,11,0,0,1-2.74,2.43,7.38,7.38,0,0,1-3.13,1.09,7.31,7.31,0,0,1-3.64-.66,6.69,6.69,0,0,1-3.47-2.83,9.85,9.85,0,0,1-1.23-4.07,15.1,15.1,0,0,1,.36-4.58,30.29,30.29,0,0,1,1.32-4.36,32,32,0,0,1,3.23-6.29,20.27,20.27,0,0,1,3.76-4.28A13,13,0,0,1,236,78.87a12.12,12.12,0,0,1,4.28-.66,9.14,9.14,0,0,1,1.53.27,4.61,4.61,0,0,1,1.51.69,4.21,4.21,0,0,1,1.17,1.3,3.8,3.8,0,0,1,.49,2,2.21,2.21,0,0,1-.61,1.8,1.61,1.61,0,0,1-1.26.54,2,2,0,0,1-1.3-.48A1.57,1.57,0,0,1,241.23,83.09Z"/><path class="cls-1" d="M259.24,90.67a.9.9,0,0,1-.57.49,1.14,1.14,0,0,1-.73,0,1,1,0,0,1-.54-.46.88.88,0,0,1,0-.81q.18-.54.66-1.65c.32-.75.64-1.53,1-2.35s.64-1.63,1-2.41a13.23,13.23,0,0,0,.66-2,6.09,6.09,0,0,1-2.38-2.11,5.06,5.06,0,0,1-1-2.89,5.31,5.31,0,0,1,1-3.19A3.36,3.36,0,0,1,261.1,72a2.67,2.67,0,0,1,2.08,1,3.75,3.75,0,0,1,.93,2.38c0,.52,0,1.24-.09,2.17a12.38,12.38,0,0,1-.33,2.29,1.6,1.6,0,0,0,.82.3,9.53,9.53,0,0,0,1.11.06,5.8,5.8,0,0,0,2.08-.3,8.61,8.61,0,0,0,1.29-.64c.36-.22.73-.43,1.09-.63a3,3,0,0,1,1.44-.3,5.37,5.37,0,0,1,2.41.6,3.67,3.67,0,0,1,1.75,2.35,7.46,7.46,0,0,1-.18,4.25,35.27,35.27,0,0,1-2,5.2c-.86,1.81-1.79,3.6-2.77,5.36s-1.81,3.35-2.47,4.73a11.66,11.66,0,0,0-1.14,3.31c-.1.83.31,1.2,1.23,1.12a3.22,3.22,0,0,0,1.51-1,23.1,23.1,0,0,0,2.1-2.31c.77-1,1.55-2,2.35-3.17s1.57-2.32,2.29-3.49S277.94,93,278.51,92a19.28,19.28,0,0,0,1.2-2.59.9.9,0,0,1,.6-.6,1.33,1.33,0,0,1,.79,0,1,1,0,0,1,.57.48.74.74,0,0,1,0,.78c-.32.69-.78,1.62-1.39,2.8s-1.31,2.45-2.13,3.8-1.72,2.7-2.68,4.06a39,39,0,0,1-3,3.73,18.12,18.12,0,0,1-3.11,2.77,5.25,5.25,0,0,1-3,1.09,3.5,3.5,0,0,1-2.07-.48,4,4,0,0,1-1.42-1.54,6.77,6.77,0,0,1-.72-2.41,12.86,12.86,0,0,1,0-3,23,23,0,0,1,1.14-5c.6-1.76,1.27-3.5,2-5.21s1.42-3.3,2.11-4.78a31.82,31.82,0,0,0,1.5-3.8,9.19,9.19,0,0,1-2.86.58,9.68,9.68,0,0,1-3.16-.34l-.63,1.54c-.3.74-.63,1.55-1,2.41s-.72,1.71-1.08,2.53S259.48,90.23,259.24,90.67Z"/></g></g></svg>