<svg xmlns="http://www.w3.org/2000/svg" viewBox="0 0 65.47 65.47"><defs><style>.cls-1{fill:#f37f77;}</style></defs><title>icon-pr</title><g id="Capa_2" data-name="Capa 2"><g id="Capa_1-2" data-name="Capa 1"><path class="cls-1" d="M61.46,65.47H4a4,4,0,0,1-4-4V4A4,4,0,0,1,4,0H61.46a4,4,0,0,1,4,4V61.46A4,4,0,0,1,61.46,65.47ZM4,1A3,3,0,0,0,1,4V61.46a3,3,0,0,0,3,3H61.46a3,3,0,0,0,3-3V4a3,3,0,0,0-3-3Z"/><path class="cls-1" d="M16.63,22a47.4,47.4,0,0,1,7.67-.52c3.49,0,6,.67,7.66,2a7.34,7.34,0,0,1,2.68,5.8,8,8,0,0,1-2.31,6c-1.93,1.82-4.8,2.64-8.15,2.64a15,15,0,0,1-1.93-.11v9H16.63Zm5.62,11.39a8.75,8.75,0,0,0,1.9.15c3,0,4.87-1.53,4.87-4.1,0-2.3-1.6-3.68-4.43-3.68a9.78,9.78,0,0,0-2.34.22Z"/><path class="cls-1" d="M37.72,34.57c0-2.68-.07-4.43-.15-6h4.88l.18,3.35h.15a5.35,5.35,0,0,1,4.91-3.76,5.43,5.43,0,0,1,1.19.08v5.32a7.62,7.62,0,0,0-1.52-.15,3.63,3.63,0,0,0-3.87,2.86,6.26,6.26,0,0,0-.11,1.27v9.22H37.72Z"/></g></g></svg>