<svg xmlns="http://www.w3.org/2000/svg" viewBox="0 0 65.47 65.47"><defs><style>.cls-1{fill:#f37f77;}.cls-2{fill:#dd7472;}</style></defs><title>icon-3d</title><g id="Capa_2" data-name="Capa 2"><g id="Capa_1-2" data-name="Capa 1"><path class="cls-1" d="M61.46,65.47H4a4,4,0,0,1-4-4V4A4,4,0,0,1,4,0H61.46a4,4,0,0,1,4,4V61.46A4,4,0,0,1,61.46,65.47ZM4,1A3,3,0,0,0,1,4V61.46a3,3,0,0,0,3,3H61.46a3,3,0,0,0,3-3V4a3,3,0,0,0-3-3Z"/><polygon class="cls-1" points="44.24 18.84 39.7 10.24 39.53 9.93 30.55 9.93 18.82 9.93 18.37 10.83 14.36 18.84 30.39 18.84 30.48 18.84 30.55 18.77 30.55 18.84 30.55 18.95 51.24 32.73 51.24 32.08 44.24 18.84"/><polygon class="cls-1" points="30.55 25.25 25.61 23.39 15.38 32.94 25.61 42.49 30.55 40.62 50.92 32.94 30.55 25.25"/><polygon class="cls-2" points="30.55 18.95 30.44 18.88 30.39 18.84 14.36 18.84 14.23 19.1 14.23 19.1 25.61 23.39 30.55 25.25 50.92 32.94 51.24 32.82 51.24 32.73 30.55 18.95"/><polygon class="cls-1" points="30.55 46.93 30.55 47.03 30.55 47.1 30.48 47.03 30.39 47.03 14.36 47.03 18.37 55.05 18.62 55.54 30.55 55.54 39.58 55.54 39.75 55.54 44.24 47.03 51.24 33.8 51.24 33.14 30.55 46.93"/><polygon class="cls-2" points="50.92 32.94 30.55 40.62 25.61 42.49 14.23 46.78 14.36 47.03 30.39 47.03 30.44 47 30.55 46.93 51.24 33.14 51.24 33.06 50.92 32.94"/></g></g></svg>