<svg xmlns="http://www.w3.org/2000/svg" viewBox="0 0 65.47 65.47"><defs><style>.cls-1{fill:#f37f77;}</style></defs><title>icon-office</title><g id="Capa_2" data-name="Capa 2"><g id="Capa_1-2" data-name="Capa 1"><path class="cls-1" d="M61.46,65.47H4a4,4,0,0,1-4-4V4A4,4,0,0,1,4,0H61.46a4,4,0,0,1,4,4V61.46A4,4,0,0,1,61.46,65.47ZM4,1A3,3,0,0,0,1,4V61.46a3,3,0,0,0,3,3H61.46a3,3,0,0,0,3-3V4a3,3,0,0,0-3-3Z"/><path class="cls-1" d="M16,45.59l20.7,2.49c0-.13.05-27.43,0-27.62L23,23.65v18.7l-7.26,3.18V21.84l.46-.17,19-7,1.26-.47a.58.58,0,0,1,.39,0L47,17.39l.92.29.18.06v31.9l-.2.07L36.85,53a.53.53,0,0,1-.35,0L16.59,45.86l-.65-.23Z"/></g></g></svg>