<svg xmlns="http://www.w3.org/2000/svg" viewBox="0 0 315.86 75.31"><defs><style>.cls-1{font-size:19.08px;fill:#171a21;font-family:Biko, Biko;}.cls-2{letter-spacing:-0.01em;}.cls-3{letter-spacing:-0.02em;}.cls-4{letter-spacing:0.01em;}.cls-5{letter-spacing:0.04em;}.cls-6{fill:#f37f77;}.cls-7{fill:#07666d;}</style></defs><title>img-hab-foto</title><g id="Capa_2" data-name="Capa 2"><g id="Capa_1-2" data-name="Capa 1"><text class="cls-1" transform="translate(96.43 44.43)"><tspan class="cls-2">F</tspan><tspan x="9.69" y="0">O</tspan><tspan class="cls-3" x="25.2" y="0">T</tspan><tspan x="34.73" y="0">OG</tspan><tspan class="cls-2" x="64.87" y="0">R</tspan><tspan class="cls-4" x="76.82" y="0">A</tspan><tspan class="cls-5" x="89.96" y="0">F</tspan><tspan x="100.65" y="0">ÍA </tspan></text><path class="cls-6" d="M170.19,4.9V19.61H145.67V4.9Zm2.45-2.45H143.22V22.06h29.42ZM154.25,9.81h-6.12V7.35h6.12Zm-4.9-8.58h-3.68V0h3.68Zm13.48,8.58a2.45,2.45,0,1,1-2.45,2.45A2.46,2.46,0,0,1,162.83,9.81Zm0-2.46a4.91,4.91,0,1,0,4.91,4.91A4.91,4.91,0,0,0,162.83,7.35Z"/><rect class="cls-7" x="2.98" y="57.95" width="14.39" height="14.39" transform="translate(-43.08 26.27) rotate(-45)"/><rect class="cls-7" x="35.81" y="57.95" width="14.39" height="14.39" transform="translate(-33.46 49.49) rotate(-45)"/><rect class="cls-7" x="68.65" y="57.95" width="14.39" height="14.39" transform="translate(-23.85 72.71) rotate(-45)"/><rect class="cls-7" x="101.49" y="57.95" width="14.39" height="14.39" transform="translate(-14.23 95.93) rotate(-45)"/><rect class="cls-7" x="134.32" y="57.95" width="14.39" height="14.39" transform="translate(-4.61 119.14) rotate(-45)"/><rect class="cls-7" x="167.16" y="57.95" width="14.39" height="14.39" transform="translate(5 142.36) rotate(-45)"/><rect class="cls-7" x="199.99" y="57.95" width="14.39" height="14.39" transform="translate(14.62 165.58) rotate(-45)"/><rect class="cls-7" x="232.83" y="57.95" width="14.39" height="14.39" transform="translate(24.24 188.8) rotate(-45)"/><rect class="cls-7" x="265.66" y="57.95" width="14.39" height="14.39" transform="translate(33.86 212.02) rotate(-45)"/><rect class="cls-7" x="298.5" y="57.95" width="14.39" height="14.39" transform="translate(43.47 235.23) rotate(-45)"/></g></g></svg>