<svg xmlns="http://www.w3.org/2000/svg" viewBox="0 0 315.86 87.11"><defs><style>.cls-1{font-size:19.08px;fill:#171a21;font-family:Biko, Biko;}.cls-2{letter-spacing:-0.01em;}.cls-3{letter-spacing:0.02em;}.cls-4{letter-spacing:0.01em;}.cls-5{letter-spacing:-0.03em;}.cls-6{letter-spacing:0.02em;}.cls-7{fill:#f37f77;}.cls-8{fill:#07666d;}.cls-9{fill:#baccca;}</style></defs><title>img-hab-branding</title><g id="Capa_2" data-name="Capa 2"><g id="Capa_1-2" data-name="Capa 1"><text class="cls-1" transform="translate(33.7 56.36)">B<tspan class="cls-2" x="12.12" y="0">R</tspan><tspan x="24.06" y="0">AN</tspan><tspan class="cls-3" x="51.34" y="0">D</tspan><tspan class="cls-4" x="64.99" y="0">I</tspan><tspan x="70.33" y="0">NG / </tspan><tspan class="cls-4" x="115.38" y="0">S</tspan><tspan x="127.04" y="0">O</tspan><tspan class="cls-4" x="142.55" y="0">C</tspan><tspan x="156.9" y="0">IAL </tspan><tspan class="cls-5" x="190.53" y="0">M</tspan><tspan class="cls-6" x="205.34" y="0">E</tspan><tspan class="cls-3" x="216.65" y="0">D</tspan><tspan x="230.3" y="0">IA</tspan></text><path class="cls-7" d="M143.22,0V23.29h29.42V0Zm27,20.84H145.67V2.45h24.52Zm-8.09,4.9,3.19,3.68H150.58l3.18-3.68Z"/><rect class="cls-8" x="2.98" y="69.74" width="14.39" height="14.39" transform="translate(-51.42 29.73) rotate(-45)"/><rect class="cls-8" x="35.81" y="69.74" width="14.39" height="14.39" transform="translate(-41.81 52.95) rotate(-45)"/><rect class="cls-8" x="68.65" y="69.74" width="14.39" height="14.39" transform="translate(-32.19 76.16) rotate(-45)"/><rect class="cls-8" x="101.49" y="69.74" width="14.39" height="14.39" transform="translate(-22.57 99.38) rotate(-45)"/><rect class="cls-8" x="134.32" y="69.74" width="14.39" height="14.39" transform="translate(-12.95 122.6) rotate(-45)"/><rect class="cls-8" x="167.16" y="69.74" width="14.39" height="14.39" transform="translate(-3.34 145.82) rotate(-45)"/><rect class="cls-8" x="199.99" y="69.74" width="14.39" height="14.39" transform="translate(6.28 169.04) rotate(-45)"/><rect class="cls-8" x="232.83" y="69.74" width="14.39" height="14.39" transform="translate(15.9 192.25) rotate(-45)"/><rect class="cls-8" x="265.66" y="69.74" width="14.39" height="14.39" transform="translate(25.52 215.47) rotate(-45)"/><rect class="cls-9" x="298.5" y="69.74" width="14.39" height="14.39" transform="translate(35.13 238.69) rotate(-45)"/></g></g></svg>