<svg xmlns="http://www.w3.org/2000/svg" viewBox="0 0 315.86 82.99"><defs><style>.cls-1{font-size:17.17px;fill:#171a21;font-family:Biko, Biko;}.cls-2{letter-spacing:0.02em;}.cls-3{letter-spacing:0.01em;}.cls-4{letter-spacing:0.01em;}.cls-5{letter-spacing:-0.02em;}.cls-6{letter-spacing:0.02em;}.cls-7{letter-spacing:0.02em;}.cls-8{letter-spacing:0.04em;}.cls-9{letter-spacing:-0.02em;}.cls-10{fill:#f37f77;}.cls-11{fill:#07666d;}.cls-12{fill:#baccca;}</style></defs><title>img-hab-editorial</title><g id="Capa_2" data-name="Capa 2"><g id="Capa_1-2" data-name="Capa 1"><text class="cls-1" transform="translate(80.22 52.76)"><tspan class="cls-2">D</tspan><tspan class="cls-3" x="12.28" y="0">I</tspan><tspan x="17.09" y="0">S</tspan><tspan class="cls-4" x="27.41" y="0">E</tspan><tspan class="cls-5" x="37.35" y="0">Ñ</tspan><tspan x="49.92" y="0">O </tspan><tspan class="cls-6" x="67.83" y="0">E</tspan><tspan class="cls-7" x="78.01" y="0">D</tspan><tspan class="cls-8" x="90.29" y="0">I</tspan><tspan class="cls-9" x="95.61" y="0">T</tspan><tspan x="104.18" y="0">ORIAL</tspan></text><path class="cls-10" d="M151.71,17.43h16.18v1.24H151.71Zm16.18-3.74H151.71v1.25h16.18Zm0-7.47h-6.22V7.47h6.22Zm0,3.74h-6.22V11.2h6.22ZM146.73,0V21.41a.63.63,0,1,1-1.25,0V2.49H143V22.38a2.52,2.52,0,0,0,2.52,2.52h24.84a2.52,2.52,0,0,0,2.52-2.52V0Zm23.65,21.16H149.22V2.49h21.16ZM159.18,6.22h-7.47v5h7.47Z"/><rect class="cls-11" x="2.98" y="65.63" width="14.39" height="14.39" transform="translate(-48.51 28.52) rotate(-45)"/><rect class="cls-11" x="35.81" y="65.63" width="14.39" height="14.39" transform="translate(-38.9 51.74) rotate(-45)"/><rect class="cls-11" x="68.65" y="65.63" width="14.39" height="14.39" transform="translate(-29.28 74.96) rotate(-45)"/><rect class="cls-11" x="101.49" y="65.63" width="14.39" height="14.39" transform="translate(-19.66 98.18) rotate(-45)"/><rect class="cls-11" x="134.32" y="65.63" width="14.39" height="14.39" transform="translate(-10.04 121.39) rotate(-45)"/><rect class="cls-11" x="167.16" y="65.63" width="14.39" height="14.39" transform="translate(-0.43 144.61) rotate(-45)"/><rect class="cls-11" x="199.99" y="65.63" width="14.39" height="14.39" transform="translate(9.19 167.83) rotate(-45)"/><rect class="cls-11" x="232.83" y="65.63" width="14.39" height="14.39" transform="translate(18.81 191.05) rotate(-45)"/><rect class="cls-11" x="265.66" y="65.63" width="14.39" height="14.39" transform="translate(28.43 214.27) rotate(-45)"/><rect class="cls-12" x="298.5" y="65.63" width="14.39" height="14.39" transform="translate(38.04 237.48) rotate(-45)"/></g></g></svg>