<svg xmlns="http://www.w3.org/2000/svg" viewBox="0 0 315.86 89.18"><defs><style>.cls-1{font-size:17.17px;fill:#171a21;font-family:Biko, Biko;}.cls-2{letter-spacing:0.02em;}.cls-3{letter-spacing:0.01em;}.cls-4{letter-spacing:0.01em;}.cls-5{letter-spacing:-0.02em;}.cls-6{letter-spacing:-0.01em;}.cls-7{letter-spacing:0.01em;}.cls-8{letter-spacing:0.04em;}.cls-9{letter-spacing:0.01em;}.cls-10{letter-spacing:0em;}.cls-11{fill:#f37f77;}.cls-12{fill:#07666d;}</style></defs><title>img-hab-diseno</title><g id="Capa_2" data-name="Capa 2"><g id="Capa_1-2" data-name="Capa 1"><text class="cls-1" transform="translate(85.57 54.03)"><tspan class="cls-2">D</tspan><tspan class="cls-3" x="12.28" y="0">I</tspan><tspan x="17.09" y="0">S</tspan><tspan class="cls-4" x="27.41" y="0">E</tspan><tspan class="cls-5" x="37.35" y="0">Ñ</tspan><tspan x="49.92" y="0">O G</tspan><tspan class="cls-6" x="81" y="0">R</tspan><tspan class="cls-7" x="91.75" y="0">Á</tspan><tspan class="cls-8" x="103.58" y="0">F</tspan><tspan class="cls-9" x="113.2" y="0">I</tspan><tspan class="cls-10" x="118.02" y="0">CO</tspan></text><path class="cls-11" d="M162.39,2.23a2.23,2.23,0,0,1,2.22,2.22V17.82a6.68,6.68,0,0,1-13.36,0V4.45a2.23,2.23,0,0,1,2.23-2.22Zm4.45,2.22A4.45,4.45,0,0,0,162.39,0h-8.91A4.46,4.46,0,0,0,149,4.45V17.82a8.91,8.91,0,1,0,17.82,0Zm-7.79,1.12a1.12,1.12,0,1,0-2.23,0V10a1.12,1.12,0,1,0,2.23,0Z"/><rect class="cls-12" x="2.98" y="71.81" width="14.39" height="14.39" transform="translate(-52.89 30.33) rotate(-45)"/><rect class="cls-12" x="35.81" y="71.81" width="14.39" height="14.39" transform="translate(-43.27 53.55) rotate(-45)"/><rect class="cls-12" x="68.65" y="71.81" width="14.39" height="14.39" transform="translate(-33.65 76.77) rotate(-45)"/><rect class="cls-12" x="101.49" y="71.81" width="14.39" height="14.39" transform="translate(-24.03 99.99) rotate(-45)"/><rect class="cls-12" x="134.32" y="71.81" width="14.39" height="14.39" transform="translate(-14.42 123.21) rotate(-45)"/><rect class="cls-12" x="167.16" y="71.81" width="14.39" height="14.39" transform="translate(-4.8 146.42) rotate(-45)"/><rect class="cls-12" x="199.99" y="71.81" width="14.39" height="14.39" transform="translate(4.82 169.64) rotate(-45)"/><rect class="cls-12" x="232.83" y="71.81" width="14.39" height="14.39" transform="translate(14.43 192.86) rotate(-45)"/><rect class="cls-12" x="265.66" y="71.81" width="14.39" height="14.39" transform="translate(24.05 216.08) rotate(-45)"/><rect class="cls-12" x="298.5" y="71.81" width="14.39" height="14.39" transform="translate(33.67 239.3) rotate(-45)"/></g></g></svg>